<mxfile host="app.diagrams.net" modified="2021-07-29T02:44:09.321Z" agent="5.0 (Windows NT 10.0; Win64; x64) AppleWebKit/537.36 (KHTML, like Gecko) Chrome/91.0.4472.124 Safari/537.36" etag="RFai7Mw2MRLtd7-3aszb" version="14.9.2" type="github">
  <diagram id="LHQ_S99ZDGge-Q48gLuW" name="Page-1">
    <mxGraphModel dx="1718" dy="935" grid="1" gridSize="10" guides="1" tooltips="1" connect="1" arrows="1" fold="1" page="1" pageScale="1" pageWidth="1200" pageHeight="1920" math="0" shadow="0">
      <root>
        <mxCell id="0" />
        <mxCell id="1" parent="0" />
        <mxCell id="HuC7r04sQeDn7_vfrIKP-1" value="" style="shape=table;startSize=0;container=1;collapsible=0;childLayout=tableLayout;" vertex="1" parent="1">
          <mxGeometry x="110" y="210" width="400" height="520" as="geometry" />
        </mxCell>
        <mxCell id="HuC7r04sQeDn7_vfrIKP-2" value="" style="shape=partialRectangle;collapsible=0;dropTarget=0;pointerEvents=0;fillColor=none;top=0;left=0;bottom=0;right=0;points=[[0,0.5],[1,0.5]];portConstraint=eastwest;" vertex="1" parent="HuC7r04sQeDn7_vfrIKP-1">
          <mxGeometry width="400" height="40" as="geometry" />
        </mxCell>
        <mxCell id="HuC7r04sQeDn7_vfrIKP-3" value="ELF Header" style="shape=partialRectangle;html=1;whiteSpace=wrap;connectable=0;overflow=hidden;fillColor=none;top=0;left=0;bottom=0;right=0;" vertex="1" parent="HuC7r04sQeDn7_vfrIKP-2">
          <mxGeometry width="400" height="40" as="geometry" />
        </mxCell>
        <mxCell id="HuC7r04sQeDn7_vfrIKP-4" value="" style="shape=partialRectangle;collapsible=0;dropTarget=0;pointerEvents=0;fillColor=none;top=0;left=0;bottom=0;right=0;points=[[0,0.5],[1,0.5]];portConstraint=eastwest;" vertex="1" parent="HuC7r04sQeDn7_vfrIKP-1">
          <mxGeometry y="40" width="400" height="40" as="geometry" />
        </mxCell>
        <mxCell id="HuC7r04sQeDn7_vfrIKP-5" value="PHT(Optional)" style="shape=partialRectangle;html=1;whiteSpace=wrap;connectable=0;overflow=hidden;fillColor=none;top=0;left=0;bottom=0;right=0;" vertex="1" parent="HuC7r04sQeDn7_vfrIKP-4">
          <mxGeometry width="400" height="40" as="geometry" />
        </mxCell>
        <mxCell id="HuC7r04sQeDn7_vfrIKP-6" value="" style="shape=partialRectangle;collapsible=0;dropTarget=0;pointerEvents=0;fillColor=none;top=0;left=0;bottom=0;right=0;points=[[0,0.5],[1,0.5]];portConstraint=eastwest;" vertex="1" parent="HuC7r04sQeDn7_vfrIKP-1">
          <mxGeometry y="80" width="400" height="40" as="geometry" />
        </mxCell>
        <mxCell id="HuC7r04sQeDn7_vfrIKP-7" value=".dynsym" style="shape=partialRectangle;html=1;whiteSpace=wrap;connectable=0;overflow=hidden;fillColor=none;top=0;left=0;bottom=0;right=0;" vertex="1" parent="HuC7r04sQeDn7_vfrIKP-6">
          <mxGeometry width="400" height="40" as="geometry" />
        </mxCell>
        <mxCell id="HuC7r04sQeDn7_vfrIKP-8" value="" style="shape=partialRectangle;collapsible=0;dropTarget=0;pointerEvents=0;fillColor=none;top=0;left=0;bottom=0;right=0;points=[[0,0.5],[1,0.5]];portConstraint=eastwest;" vertex="1" parent="HuC7r04sQeDn7_vfrIKP-1">
          <mxGeometry y="120" width="400" height="40" as="geometry" />
        </mxCell>
        <mxCell id="HuC7r04sQeDn7_vfrIKP-9" value=".dynstr" style="shape=partialRectangle;html=1;whiteSpace=wrap;connectable=0;overflow=hidden;fillColor=none;top=0;left=0;bottom=0;right=0;" vertex="1" parent="HuC7r04sQeDn7_vfrIKP-8">
          <mxGeometry width="400" height="40" as="geometry" />
        </mxCell>
        <mxCell id="HuC7r04sQeDn7_vfrIKP-10" value="" style="shape=partialRectangle;collapsible=0;dropTarget=0;pointerEvents=0;fillColor=none;top=0;left=0;bottom=0;right=0;points=[[0,0.5],[1,0.5]];portConstraint=eastwest;" vertex="1" parent="HuC7r04sQeDn7_vfrIKP-1">
          <mxGeometry y="160" width="400" height="40" as="geometry" />
        </mxCell>
        <mxCell id="HuC7r04sQeDn7_vfrIKP-11" value="..." style="shape=partialRectangle;html=1;whiteSpace=wrap;connectable=0;overflow=hidden;fillColor=none;top=0;left=0;bottom=0;right=0;" vertex="1" parent="HuC7r04sQeDn7_vfrIKP-10">
          <mxGeometry width="400" height="40" as="geometry" />
        </mxCell>
        <mxCell id="HuC7r04sQeDn7_vfrIKP-12" value="" style="shape=partialRectangle;collapsible=0;dropTarget=0;pointerEvents=0;fillColor=none;top=0;left=0;bottom=0;right=0;points=[[0,0.5],[1,0.5]];portConstraint=eastwest;" vertex="1" parent="HuC7r04sQeDn7_vfrIKP-1">
          <mxGeometry y="200" width="400" height="40" as="geometry" />
        </mxCell>
        <mxCell id="HuC7r04sQeDn7_vfrIKP-13" value=".rel.dyn" style="shape=partialRectangle;html=1;whiteSpace=wrap;connectable=0;overflow=hidden;fillColor=none;top=0;left=0;bottom=0;right=0;" vertex="1" parent="HuC7r04sQeDn7_vfrIKP-12">
          <mxGeometry width="400" height="40" as="geometry" />
        </mxCell>
        <mxCell id="HuC7r04sQeDn7_vfrIKP-14" value="" style="shape=partialRectangle;collapsible=0;dropTarget=0;pointerEvents=0;fillColor=none;top=0;left=0;bottom=0;right=0;points=[[0,0.5],[1,0.5]];portConstraint=eastwest;" vertex="1" parent="HuC7r04sQeDn7_vfrIKP-1">
          <mxGeometry y="240" width="400" height="40" as="geometry" />
        </mxCell>
        <mxCell id="HuC7r04sQeDn7_vfrIKP-15" value=".rel.plt" style="shape=partialRectangle;html=1;whiteSpace=wrap;connectable=0;overflow=hidden;fillColor=none;top=0;left=0;bottom=0;right=0;" vertex="1" parent="HuC7r04sQeDn7_vfrIKP-14">
          <mxGeometry width="400" height="40" as="geometry" />
        </mxCell>
        <mxCell id="HuC7r04sQeDn7_vfrIKP-16" value="" style="shape=partialRectangle;collapsible=0;dropTarget=0;pointerEvents=0;fillColor=none;top=0;left=0;bottom=0;right=0;points=[[0,0.5],[1,0.5]];portConstraint=eastwest;" vertex="1" parent="HuC7r04sQeDn7_vfrIKP-1">
          <mxGeometry y="280" width="400" height="40" as="geometry" />
        </mxCell>
        <mxCell id="HuC7r04sQeDn7_vfrIKP-17" value=".text" style="shape=partialRectangle;html=1;whiteSpace=wrap;connectable=0;overflow=hidden;fillColor=none;top=0;left=0;bottom=0;right=0;" vertex="1" parent="HuC7r04sQeDn7_vfrIKP-16">
          <mxGeometry width="400" height="40" as="geometry" />
        </mxCell>
        <mxCell id="HuC7r04sQeDn7_vfrIKP-18" value="" style="shape=partialRectangle;collapsible=0;dropTarget=0;pointerEvents=0;fillColor=none;top=0;left=0;bottom=0;right=0;points=[[0,0.5],[1,0.5]];portConstraint=eastwest;" vertex="1" parent="HuC7r04sQeDn7_vfrIKP-1">
          <mxGeometry y="320" width="400" height="40" as="geometry" />
        </mxCell>
        <mxCell id="HuC7r04sQeDn7_vfrIKP-19" value="..." style="shape=partialRectangle;html=1;whiteSpace=wrap;connectable=0;overflow=hidden;fillColor=none;top=0;left=0;bottom=0;right=0;" vertex="1" parent="HuC7r04sQeDn7_vfrIKP-18">
          <mxGeometry width="400" height="40" as="geometry" />
        </mxCell>
        <mxCell id="HuC7r04sQeDn7_vfrIKP-20" value="" style="shape=partialRectangle;collapsible=0;dropTarget=0;pointerEvents=0;fillColor=none;top=0;left=0;bottom=0;right=0;points=[[0,0.5],[1,0.5]];portConstraint=eastwest;" vertex="1" parent="HuC7r04sQeDn7_vfrIKP-1">
          <mxGeometry y="360" width="400" height="40" as="geometry" />
        </mxCell>
        <mxCell id="HuC7r04sQeDn7_vfrIKP-21" value=".dynamic" style="shape=partialRectangle;html=1;whiteSpace=wrap;connectable=0;overflow=hidden;fillColor=none;top=0;left=0;bottom=0;right=0;" vertex="1" parent="HuC7r04sQeDn7_vfrIKP-20">
          <mxGeometry width="400" height="40" as="geometry" />
        </mxCell>
        <mxCell id="HuC7r04sQeDn7_vfrIKP-22" value="" style="shape=partialRectangle;collapsible=0;dropTarget=0;pointerEvents=0;fillColor=none;top=0;left=0;bottom=0;right=0;points=[[0,0.5],[1,0.5]];portConstraint=eastwest;" vertex="1" parent="HuC7r04sQeDn7_vfrIKP-1">
          <mxGeometry y="400" width="400" height="40" as="geometry" />
        </mxCell>
        <mxCell id="HuC7r04sQeDn7_vfrIKP-23" value=".got" style="shape=partialRectangle;html=1;whiteSpace=wrap;connectable=0;overflow=hidden;fillColor=none;top=0;left=0;bottom=0;right=0;" vertex="1" parent="HuC7r04sQeDn7_vfrIKP-22">
          <mxGeometry width="400" height="40" as="geometry" />
        </mxCell>
        <mxCell id="HuC7r04sQeDn7_vfrIKP-24" value="" style="shape=partialRectangle;collapsible=0;dropTarget=0;pointerEvents=0;fillColor=none;top=0;left=0;bottom=0;right=0;points=[[0,0.5],[1,0.5]];portConstraint=eastwest;" vertex="1" parent="HuC7r04sQeDn7_vfrIKP-1">
          <mxGeometry y="440" width="400" height="40" as="geometry" />
        </mxCell>
        <mxCell id="HuC7r04sQeDn7_vfrIKP-25" value="..." style="shape=partialRectangle;html=1;whiteSpace=wrap;connectable=0;overflow=hidden;fillColor=none;top=0;left=0;bottom=0;right=0;" vertex="1" parent="HuC7r04sQeDn7_vfrIKP-24">
          <mxGeometry width="400" height="40" as="geometry" />
        </mxCell>
        <mxCell id="HuC7r04sQeDn7_vfrIKP-26" value="" style="shape=partialRectangle;collapsible=0;dropTarget=0;pointerEvents=0;fillColor=none;top=0;left=0;bottom=0;right=0;points=[[0,0.5],[1,0.5]];portConstraint=eastwest;" vertex="1" parent="HuC7r04sQeDn7_vfrIKP-1">
          <mxGeometry y="480" width="400" height="40" as="geometry" />
        </mxCell>
        <mxCell id="HuC7r04sQeDn7_vfrIKP-27" value="SHT" style="shape=partialRectangle;html=1;whiteSpace=wrap;connectable=0;overflow=hidden;fillColor=none;top=0;left=0;bottom=0;right=0;" vertex="1" parent="HuC7r04sQeDn7_vfrIKP-26">
          <mxGeometry width="400" height="40" as="geometry" />
        </mxCell>
        <mxCell id="HuC7r04sQeDn7_vfrIKP-104" value="" style="endArrow=classic;html=1;exitX=0;exitY=0.5;exitDx=0;exitDy=0;entryX=0.005;entryY=0.05;entryDx=0;entryDy=0;entryPerimeter=0;" edge="1" parent="HuC7r04sQeDn7_vfrIKP-1" source="HuC7r04sQeDn7_vfrIKP-2" target="HuC7r04sQeDn7_vfrIKP-26">
          <mxGeometry width="50" height="50" relative="1" as="geometry">
            <mxPoint x="-100" y="200" as="sourcePoint" />
            <mxPoint x="-50" y="150" as="targetPoint" />
            <Array as="points">
              <mxPoint x="-90" y="20" />
              <mxPoint x="-90" y="482" />
            </Array>
          </mxGeometry>
        </mxCell>
        <mxCell id="HuC7r04sQeDn7_vfrIKP-105" value="" style="endArrow=classic;html=1;exitX=0;exitY=0.5;exitDx=0;exitDy=0;entryX=0;entryY=0.5;entryDx=0;entryDy=0;" edge="1" parent="HuC7r04sQeDn7_vfrIKP-1" source="HuC7r04sQeDn7_vfrIKP-26" target="HuC7r04sQeDn7_vfrIKP-6">
          <mxGeometry width="50" height="50" relative="1" as="geometry">
            <mxPoint y="640" as="sourcePoint" />
            <mxPoint x="50" y="590" as="targetPoint" />
            <Array as="points">
              <mxPoint x="-80" y="500" />
              <mxPoint x="-80" y="100" />
            </Array>
          </mxGeometry>
        </mxCell>
        <mxCell id="HuC7r04sQeDn7_vfrIKP-106" value="" style="endArrow=classic;html=1;exitX=0;exitY=0.5;exitDx=0;exitDy=0;entryX=0;entryY=0.5;entryDx=0;entryDy=0;" edge="1" parent="HuC7r04sQeDn7_vfrIKP-1" source="HuC7r04sQeDn7_vfrIKP-26" target="HuC7r04sQeDn7_vfrIKP-8">
          <mxGeometry width="50" height="50" relative="1" as="geometry">
            <mxPoint x="-20" y="650" as="sourcePoint" />
            <mxPoint x="30" y="600" as="targetPoint" />
            <Array as="points">
              <mxPoint x="-70" y="500" />
              <mxPoint x="-70" y="140" />
            </Array>
          </mxGeometry>
        </mxCell>
        <mxCell id="HuC7r04sQeDn7_vfrIKP-107" value="" style="endArrow=classic;html=1;exitX=0;exitY=0.5;exitDx=0;exitDy=0;entryX=0;entryY=0.5;entryDx=0;entryDy=0;" edge="1" parent="HuC7r04sQeDn7_vfrIKP-1" source="HuC7r04sQeDn7_vfrIKP-26" target="HuC7r04sQeDn7_vfrIKP-12">
          <mxGeometry width="50" height="50" relative="1" as="geometry">
            <mxPoint x="-50" y="610" as="sourcePoint" />
            <mxPoint y="560" as="targetPoint" />
            <Array as="points">
              <mxPoint x="-60" y="500" />
              <mxPoint x="-60" y="220" />
            </Array>
          </mxGeometry>
        </mxCell>
        <mxCell id="HuC7r04sQeDn7_vfrIKP-108" value="" style="endArrow=classic;html=1;exitX=0;exitY=0.5;exitDx=0;exitDy=0;entryX=0;entryY=0.5;entryDx=0;entryDy=0;" edge="1" parent="HuC7r04sQeDn7_vfrIKP-1" source="HuC7r04sQeDn7_vfrIKP-26" target="HuC7r04sQeDn7_vfrIKP-14">
          <mxGeometry width="50" height="50" relative="1" as="geometry">
            <mxPoint x="60" y="640" as="sourcePoint" />
            <mxPoint x="110" y="590" as="targetPoint" />
            <Array as="points">
              <mxPoint x="-50" y="500" />
              <mxPoint x="-50" y="260" />
            </Array>
          </mxGeometry>
        </mxCell>
        <mxCell id="HuC7r04sQeDn7_vfrIKP-109" value="" style="endArrow=classic;html=1;exitX=0;exitY=0.5;exitDx=0;exitDy=0;entryX=0;entryY=0.5;entryDx=0;entryDy=0;" edge="1" parent="HuC7r04sQeDn7_vfrIKP-1" source="HuC7r04sQeDn7_vfrIKP-26" target="HuC7r04sQeDn7_vfrIKP-16">
          <mxGeometry width="50" height="50" relative="1" as="geometry">
            <mxPoint x="90" y="700" as="sourcePoint" />
            <mxPoint x="140" y="650" as="targetPoint" />
            <Array as="points">
              <mxPoint x="-40" y="500" />
              <mxPoint x="-40" y="300" />
            </Array>
          </mxGeometry>
        </mxCell>
        <mxCell id="HuC7r04sQeDn7_vfrIKP-110" value="" style="endArrow=classic;html=1;exitX=0;exitY=0.5;exitDx=0;exitDy=0;entryX=0;entryY=0.5;entryDx=0;entryDy=0;" edge="1" parent="HuC7r04sQeDn7_vfrIKP-1" source="HuC7r04sQeDn7_vfrIKP-26" target="HuC7r04sQeDn7_vfrIKP-20">
          <mxGeometry width="50" height="50" relative="1" as="geometry">
            <mxPoint x="-20" y="640" as="sourcePoint" />
            <mxPoint x="30" y="590" as="targetPoint" />
            <Array as="points">
              <mxPoint x="-30" y="500" />
              <mxPoint x="-30" y="380" />
            </Array>
          </mxGeometry>
        </mxCell>
        <mxCell id="HuC7r04sQeDn7_vfrIKP-111" value="" style="endArrow=classic;html=1;exitX=0;exitY=0.5;exitDx=0;exitDy=0;entryX=0;entryY=0.5;entryDx=0;entryDy=0;" edge="1" parent="HuC7r04sQeDn7_vfrIKP-1" source="HuC7r04sQeDn7_vfrIKP-26" target="HuC7r04sQeDn7_vfrIKP-22">
          <mxGeometry width="50" height="50" relative="1" as="geometry">
            <mxPoint x="40" y="640" as="sourcePoint" />
            <mxPoint x="90" y="590" as="targetPoint" />
            <Array as="points">
              <mxPoint x="-20" y="500" />
              <mxPoint x="-20" y="420" />
            </Array>
          </mxGeometry>
        </mxCell>
        <mxCell id="HuC7r04sQeDn7_vfrIKP-75" value="" style="shape=table;startSize=0;container=1;collapsible=0;childLayout=tableLayout;" vertex="1" parent="1">
          <mxGeometry x="630" y="210" width="400" height="520" as="geometry" />
        </mxCell>
        <mxCell id="HuC7r04sQeDn7_vfrIKP-76" value="" style="shape=partialRectangle;collapsible=0;dropTarget=0;pointerEvents=0;fillColor=none;top=0;left=0;bottom=0;right=0;points=[[0,0.5],[1,0.5]];portConstraint=eastwest;" vertex="1" parent="HuC7r04sQeDn7_vfrIKP-75">
          <mxGeometry width="400" height="40" as="geometry" />
        </mxCell>
        <mxCell id="HuC7r04sQeDn7_vfrIKP-77" value="ELF Header" style="shape=partialRectangle;html=1;whiteSpace=wrap;connectable=0;overflow=hidden;fillColor=none;top=0;left=0;bottom=0;right=0;" vertex="1" parent="HuC7r04sQeDn7_vfrIKP-76">
          <mxGeometry width="400" height="40" as="geometry" />
        </mxCell>
        <mxCell id="HuC7r04sQeDn7_vfrIKP-78" value="" style="shape=partialRectangle;collapsible=0;dropTarget=0;pointerEvents=0;fillColor=none;top=0;left=0;bottom=0;right=0;points=[[0,0.5],[1,0.5]];portConstraint=eastwest;" vertex="1" parent="HuC7r04sQeDn7_vfrIKP-75">
          <mxGeometry y="40" width="400" height="40" as="geometry" />
        </mxCell>
        <mxCell id="HuC7r04sQeDn7_vfrIKP-79" value="PHT" style="shape=partialRectangle;html=1;whiteSpace=wrap;connectable=0;overflow=hidden;fillColor=none;top=0;left=0;bottom=0;right=0;" vertex="1" parent="HuC7r04sQeDn7_vfrIKP-78">
          <mxGeometry width="400" height="40" as="geometry" />
        </mxCell>
        <mxCell id="HuC7r04sQeDn7_vfrIKP-80" value="" style="shape=partialRectangle;collapsible=0;dropTarget=0;pointerEvents=0;fillColor=none;top=0;left=0;bottom=0;right=0;points=[[0,0.5],[1,0.5]];portConstraint=eastwest;" vertex="1" parent="HuC7r04sQeDn7_vfrIKP-75">
          <mxGeometry y="80" width="400" height="120" as="geometry" />
        </mxCell>
        <mxCell id="HuC7r04sQeDn7_vfrIKP-81" value="Segment(.dynsym, ,dynstr, .rel.dyn, .rel.plt, .text, .dynamic...)" style="shape=partialRectangle;html=1;whiteSpace=wrap;connectable=0;overflow=hidden;fillColor=none;top=0;left=0;bottom=0;right=0;" vertex="1" parent="HuC7r04sQeDn7_vfrIKP-80">
          <mxGeometry width="400" height="120" as="geometry" />
        </mxCell>
        <mxCell id="HuC7r04sQeDn7_vfrIKP-82" value="" style="shape=partialRectangle;collapsible=0;dropTarget=0;pointerEvents=0;fillColor=none;top=0;left=0;bottom=0;right=0;points=[[0,0.5],[1,0.5]];portConstraint=eastwest;" vertex="1" parent="HuC7r04sQeDn7_vfrIKP-75">
          <mxGeometry y="200" width="400" height="120" as="geometry" />
        </mxCell>
        <mxCell id="HuC7r04sQeDn7_vfrIKP-83" value="Segment" style="shape=partialRectangle;html=1;whiteSpace=wrap;connectable=0;overflow=hidden;fillColor=none;top=0;left=0;bottom=0;right=0;" vertex="1" parent="HuC7r04sQeDn7_vfrIKP-82">
          <mxGeometry width="400" height="120" as="geometry" />
        </mxCell>
        <mxCell id="HuC7r04sQeDn7_vfrIKP-84" value="" style="shape=partialRectangle;collapsible=0;dropTarget=0;pointerEvents=0;fillColor=none;top=0;left=0;bottom=0;right=0;points=[[0,0.5],[1,0.5]];portConstraint=eastwest;" vertex="1" parent="HuC7r04sQeDn7_vfrIKP-75">
          <mxGeometry y="320" width="400" height="160" as="geometry" />
        </mxCell>
        <mxCell id="HuC7r04sQeDn7_vfrIKP-85" value="..." style="shape=partialRectangle;html=1;whiteSpace=wrap;connectable=0;overflow=hidden;fillColor=none;top=0;left=0;bottom=0;right=0;" vertex="1" parent="HuC7r04sQeDn7_vfrIKP-84">
          <mxGeometry width="400" height="160" as="geometry" />
        </mxCell>
        <mxCell id="HuC7r04sQeDn7_vfrIKP-100" value="" style="shape=partialRectangle;collapsible=0;dropTarget=0;pointerEvents=0;fillColor=none;top=0;left=0;bottom=0;right=0;points=[[0,0.5],[1,0.5]];portConstraint=eastwest;" vertex="1" parent="HuC7r04sQeDn7_vfrIKP-75">
          <mxGeometry y="480" width="400" height="40" as="geometry" />
        </mxCell>
        <mxCell id="HuC7r04sQeDn7_vfrIKP-101" value="SHT(Optional)" style="shape=partialRectangle;html=1;whiteSpace=wrap;connectable=0;overflow=hidden;fillColor=none;top=0;left=0;bottom=0;right=0;" vertex="1" parent="HuC7r04sQeDn7_vfrIKP-100">
          <mxGeometry width="400" height="40" as="geometry" />
        </mxCell>
        <mxCell id="HuC7r04sQeDn7_vfrIKP-112" value="" style="endArrow=classic;html=1;exitX=1;exitY=0.5;exitDx=0;exitDy=0;entryX=0.998;entryY=0;entryDx=0;entryDy=0;entryPerimeter=0;" edge="1" parent="HuC7r04sQeDn7_vfrIKP-75" source="HuC7r04sQeDn7_vfrIKP-76" target="HuC7r04sQeDn7_vfrIKP-78">
          <mxGeometry width="50" height="50" relative="1" as="geometry">
            <mxPoint x="-180" y="650" as="sourcePoint" />
            <mxPoint x="460" y="100" as="targetPoint" />
            <Array as="points">
              <mxPoint x="440" y="20" />
              <mxPoint x="440" y="40" />
            </Array>
          </mxGeometry>
        </mxCell>
        <mxCell id="HuC7r04sQeDn7_vfrIKP-113" value="" style="endArrow=classic;html=1;exitX=1;exitY=0.5;exitDx=0;exitDy=0;entryX=1;entryY=0.5;entryDx=0;entryDy=0;" edge="1" parent="HuC7r04sQeDn7_vfrIKP-75" source="HuC7r04sQeDn7_vfrIKP-78" target="HuC7r04sQeDn7_vfrIKP-80">
          <mxGeometry width="50" height="50" relative="1" as="geometry">
            <mxPoint x="460" y="190" as="sourcePoint" />
            <mxPoint x="510" y="140" as="targetPoint" />
            <Array as="points">
              <mxPoint x="490" y="60" />
              <mxPoint x="490" y="140" />
            </Array>
          </mxGeometry>
        </mxCell>
        <mxCell id="HuC7r04sQeDn7_vfrIKP-114" value="" style="endArrow=classic;html=1;exitX=1;exitY=0.5;exitDx=0;exitDy=0;entryX=1;entryY=0.5;entryDx=0;entryDy=0;" edge="1" parent="HuC7r04sQeDn7_vfrIKP-75" source="HuC7r04sQeDn7_vfrIKP-78" target="HuC7r04sQeDn7_vfrIKP-82">
          <mxGeometry width="50" height="50" relative="1" as="geometry">
            <mxPoint x="450" y="300" as="sourcePoint" />
            <mxPoint x="500" y="250" as="targetPoint" />
            <Array as="points">
              <mxPoint x="470" y="60" />
              <mxPoint x="470" y="260" />
            </Array>
          </mxGeometry>
        </mxCell>
        <mxCell id="HuC7r04sQeDn7_vfrIKP-115" value="" style="endArrow=classic;html=1;exitX=1;exitY=0.5;exitDx=0;exitDy=0;entryX=1.003;entryY=0.609;entryDx=0;entryDy=0;entryPerimeter=0;" edge="1" parent="HuC7r04sQeDn7_vfrIKP-75" source="HuC7r04sQeDn7_vfrIKP-78" target="HuC7r04sQeDn7_vfrIKP-84">
          <mxGeometry width="50" height="50" relative="1" as="geometry">
            <mxPoint x="440" y="380" as="sourcePoint" />
            <mxPoint x="490" y="330" as="targetPoint" />
            <Array as="points">
              <mxPoint x="450" y="60" />
              <mxPoint x="450" y="417" />
            </Array>
          </mxGeometry>
        </mxCell>
        <mxCell id="HuC7r04sQeDn7_vfrIKP-102" value="&lt;font style=&quot;font-size: 20px&quot;&gt;&lt;b&gt;Linking View&lt;/b&gt;&lt;/font&gt;" style="text;html=1;align=center;verticalAlign=middle;resizable=0;points=[];autosize=1;strokeColor=none;" vertex="1" parent="1">
          <mxGeometry x="240" y="150" width="140" height="20" as="geometry" />
        </mxCell>
        <mxCell id="HuC7r04sQeDn7_vfrIKP-103" value="&lt;font style=&quot;font-size: 20px&quot;&gt;&lt;b&gt;Execution View&lt;/b&gt;&lt;/font&gt;" style="text;html=1;align=center;verticalAlign=middle;resizable=0;points=[];autosize=1;strokeColor=none;" vertex="1" parent="1">
          <mxGeometry x="750" y="150" width="160" height="20" as="geometry" />
        </mxCell>
      </root>
    </mxGraphModel>
  </diagram>
</mxfile>
